HIERARCHY
ROOT Hips
{
	OFFSET 0.000000 0.000000 0.000000 
	CHANNELS 6 Xposition Yposition Zposition Yrotation Zrotation Xrotation 
	JOINT Lumbar
	{
		OFFSET 0.000000 0.000000 0.000000 
		CHANNELS 3 Zrotation Xrotation Yrotation
		JOINT Neck
		{
			OFFSET 0.000000 0.445665 0.000000 
			CHANNELS 3 Zrotation Xrotation Yrotation
			End Site
			{
				OFFSET 0.000000 0.227535 0.000000 
			}
		}
		JOINT RightShoulder
		{
			OFFSET 0.019635 0.377685 0.194865 
			CHANNELS 3 Zrotation Xrotation Yrotation
			JOINT RightElbow
			{
				OFFSET 0.000000 -0.243375 0.000000 
				CHANNELS 2 Zrotation Yrotation
				JOINT RightWrist
				{
					OFFSET 0.000000 -0.264825 0.000000 
					CHANNELS 2 Zrotation Xrotation
					End Site
					{
						OFFSET 0.006600 -0.176220 0.000990 
					}
				}
			}
		}
		JOINT LeftShoulder
		{
			OFFSET 0.019635 0.377685 -0.194865 
			CHANNELS 3 Zrotation Xrotation Yrotation
			JOINT LeftElbow
			{
				OFFSET 0.000000 -0.243375 0.000000 
				CHANNELS 2 Zrotation Yrotation
				JOINT LeftWrist
				{
					OFFSET 0.000000 -0.264825 0.000000 
					CHANNELS 2 Zrotation Xrotation
					End Site
					{
						OFFSET 0.006600 -0.176220 -0.000990 
					}
				}
			}
		}
	}
	JOINT RightHip
	{
		OFFSET 0.052140 -0.069960 0.075570 
		CHANNELS 3 Zrotation Xrotation Yrotation
		JOINT RightKnee
		{
			OFFSET 0.000000 -0.402270 0.000000 
			CHANNELS 1 Zrotation
			JOINT RightAnkle
			{
				OFFSET 0.000000 -0.404085 0.000000 
				CHANNELS 3 Zrotation Xrotation Yrotation
				End Site
				{
					OFFSET 0.204105 -0.089430 0.008415 
				}
			}
		}
	}
	JOINT LeftHip
	{
		OFFSET 0.052140 -0.069960 -0.075570 
		CHANNELS 3 Zrotation Xrotation Yrotation
		JOINT LeftKnee
		{
			OFFSET 0.000000 -0.402270 0.000000 
			CHANNELS 1 Zrotation
			JOINT LeftAnkle
			{
				OFFSET 0.000000 -0.404085 0.000000 
				CHANNELS 3 Zrotation Xrotation Yrotation
				End Site
				{
					OFFSET 0.204105 -0.089430 -0.008415 
				}
			}
		}
	}
}
MOTION
Frames: 14
Frame Time: 0.02
-1.40736 0.95971 -0.25591 166.212 0 2.11241 -19.74831 -0.61609 -3.78318 -24.41269 6.14289 2.14083 27.19219 -24.33768 31.44363 107.01768 115.96197 -42.44938 -7.28299 35.00477 6.5273 -17.6165 83.41201 -90.82178 31.02655 2.48908 9.67588 0.06765 13.97833 -27.468 10.11564 -4.63115 -3.40141 -1.04369 -2.35947 5.08172 -12.92763 6.52236 7.24032 13.29482
-1.4072 0.95967 -0.25566 166.19043 0 2.11177 -19.7041 -0.60357 -3.79886 -24.28312 6.09636 2.08677 26.89028 -24.39206 31.62708 106.96944 116.17899 -42.3919 -7.32034 34.82654 6.60962 -17.55134 83.42438 -90.78292 31.04504 2.5051 9.6828 0.05639 13.98382 -27.45141 10.11768 -4.63553 -3.38764 -1.0325 -2.37224 5.08852 -12.93355 6.53035 7.24579 13.30847
-1.40703 0.95963 -0.25544 166.15356 0 2.11233 -19.65707 -0.59645 -3.80882 -24.15601 6.06378 2.03902 26.67797 -24.48254 32.0829 106.98532 116.46814 -42.229 -7.37547 34.65821 6.67163 -17.49196 83.40147 -90.74723 31.05442 2.52968 9.6935 0.04687 13.99485 -27.43718 10.11884 -4.6407 -3.36929 -1.02209 -2.38579 5.10182 -12.9421 6.53785 7.25153 13.32745
-1.40686 0.95959 -0.25521 166.12249 0 2.11238 -19.61157 -0.58772 -3.82111 -24.02998 6.02566 1.98986 26.42788 -24.55763 32.41802 106.97261 116.72867 -42.12581 -7.42203 34.48817 6.74105 -17.42973 83.39454 -90.70981 31.06868 2.54948 9.70329 0.03693 14.00433 -27.42275 10.12021 -4.64427 -3.35273 -1.01146 -2.39874 5.11427 -12.94916 6.54565 7.25722 13.3431
-1.40671 0.95955 -0.25498 166.09617 0 2.11248 -19.56524 -0.57545 -3.83459 -23.89345 5.98382 1.93459 26.16383 -24.62821 32.73936 106.95807 116.97313 -41.97299 -7.47082 34.30488 6.81835 -17.36829 83.38834 -90.67272 31.07968 2.57277 9.70991 0.02526 14.0097 -27.40483 10.12246 -4.65279 -3.33722 -1.00021 -2.41289 5.11805 -12.95739 6.55301 7.26264 13.3625
-1.40652 0.95951 -0.25476 166.0566 0 2.11266 -19.51985 -0.57175 -3.84429 -23.78021 5.95309 1.89334 25.95084 -24.7163 33.15222 106.96164 117.2663 -41.89824 -7.51898 34.1525 6.87463 -17.30669 83.37217 -90.63618 31.09533 2.59097 9.72388 0.01768 14.0248 -27.39459 10.12264 -4.65143 -3.31857 -0.99041 -2.42465 5.14103 -12.96388 6.56123 7.26865 13.37552
-1.40625 0.95947 -0.25462 165.98134 0 2.11297 -19.47809 -0.59126 -3.84386 -23.72612 5.95053 1.89166 25.85577 -24.8507 33.77814 107.00894 117.69269 -42.06694 -7.56305 34.07833 6.87438 -17.24268 83.33573 -90.59851 31.12658 2.59263 9.75811 0.02096 14.06735 -27.40589 10.11725 -4.62097 -3.29137 -0.98516 -2.42988 5.21967 -12.96436 6.57183 7.27646 13.36806
-1.40594 0.95943 -0.25449 165.89373 0 2.11327 -19.4373 -0.61907 -3.83996 -23.69629 5.95851 1.90349 25.80943 -25.00029 34.48228 107.07066 118.16273 -42.3172 -7.60556 34.0359 6.85427 -17.17844 83.29065 -90.56172 31.16276 2.58899 9.79945 0.02834 14.1192 -27.42469 10.10981 -4.58082 -3.26134 -0.98125 -2.43261 5.31671 -12.96308 6.58332 7.28481 13.35426
-1.40565 0.95939 -0.25436 165.8137 0 2.11339 -19.39576 -0.64252 -3.83838 -23.65852 5.96116 1.90755 25.74172 -25.13866 35.13326 107.11952 118.60181 -42.52914 -7.64741 33.98222 6.84544 -17.11466 83.25033 -90.52584 31.19637 2.58807 9.83691 0.03389 14.16548 -27.43938 10.10335 -4.5462 -3.23327 -0.97627 -2.43629 5.40251 -12.96298 6.5945 7.29276 13.34438
-1.40536 0.95935 -0.25422 165.72509 0 2.1143 -19.35531 -0.66859 -3.83361 -23.60803 5.96674 1.9186 25.6738 -25.29668 35.86764 107.19678 119.0896 -42.74384 -7.69541 33.91564 6.82637 -17.04951 83.20524 -90.48453 31.23107 2.58613 9.87714 0.03938 14.21747 -27.45695 10.09665 -4.50694 -3.20226 -0.97321 -2.44076 5.50043 -12.96141 6.60532 7.30136 13.33036
-1.40506 0.95931 -0.2541 165.65132 0 2.11357 -19.31303 -0.69116 -3.83455 -23.58949 5.96836 1.91834 25.6168 -25.41668 36.44384 107.21806 119.48631 -42.9721 -7.73031 33.88316 6.82418 -16.98719 83.16852 -90.45471 31.26478 2.58494 9.91338 0.04594 14.2599 -27.47046 10.08995 -4.47493 -3.17668 -0.9665 -2.44303 5.5777 -12.96238 6.61705 7.30873 13.32334
-1.40475 0.95926 -0.25403 165.62412 0 2.10797 -19.2639 -0.70155 -3.8539 -23.6555 5.95818 1.8826 25.57726 -25.43 36.55886 107.07597 119.61177 -43.2307 -7.72677 33.93862 6.87332 -16.93176 83.1568 -90.45632 31.29477 2.58728 9.93538 0.05437 14.27182 -27.46939 10.08405 -4.46622 -3.16756 -0.94904 -2.43951 5.5909 -12.97126 6.63162 7.31271 13.33746
-1.40442 0.9592 -0.25396 165.61194 0 2.10077 -19.21321 -0.70818 -3.87882 -23.75241 5.94335 1.83519 25.54689 -25.40402 36.5117 106.87786 119.64507 -43.49828 -7.71047 34.027 6.94017 -16.87935 83.15399 -90.4694 31.32359 2.5905 9.95333 0.06373 14.27409 -27.46422 10.07816 -4.46498 -3.16389 -0.9279 -2.43392 5.58309 -12.98265 6.64697 7.31541 13.35873
-1.4041 0.95915 -0.25389 165.5912 0 2.0945 -19.16425 -0.71687 -3.90002 -23.83365 5.92937 1.79367 25.51221 -25.39453 36.54076 106.70834 119.72656 -43.75385 -7.70173 34.09921 6.99925 -16.82615 83.14742 -90.47738 31.35291 2.59319 9.97408 0.07276 14.282 -27.46199 10.07208 -4.45969 -3.15722 -0.90867 -2.4295 5.58655 -12.99255 6.66161 7.31862 13.37658
